                              M.A.S.H [1970]
                           -------------------

The staff of a Korean War field hospital use humor and hijinks to keep their sanity in the face of the horror of war.

Director:
Robert Altman
Stars:
Donald Sutherland, Elliott Gould and Tom Skerritt 
-------------------------------------------------------------------------------

General:
Format                                   : Matroska
File size                                : 969 MiB
Duration                                 : 1h 55mn
Overall bit rate                         : 1 169 Kbps

Video:
Format                                   : AVC
Format/Info                              : Advanced Video Codec
Duration                                 : 1h 55mn
Bit rate                                 : 954 Kbps
Width                                    : 720 pixels
Height                                   : 368 pixels
Display aspect ratio                     : 2.35:1
Original display aspect ratio            : 2.35:1
Frame rate mode                          : Variable
Frame rate                               : 23.976 fps
Bit depth                                : 8 bits
Scan type                                : Progressive
Stream size                              : 791 MiB (82%)
Writing library                          : x264 core 112
Language                                 : English
Default                                  : Yes
Forced                                   : No

Audio:
Format                                   : AC-3
Format/Info                              : Audio Coding 3
Duration                                 : 1h 55mn
Bit rate mode                            : Constant
Bit rate                                 : 192 Kbps
Channel(s)                               : 2 channels
Sampling rate                            : 48.0 KHz
Stream size                              : 159 MiB (16%)
Language                                 : English
Default                                  : Yes
Forced                                   : No
**********************************************************************************
NOTE FOR MY MOVIE TORRENTS: Each movie has been hashed with an MD5 checker and I am listing the hash below. MD5 programs are designed to verify data integrity using the MD5 (Message-Digest algorithm 5) 128-bit cryptographic hash. MD5 hashes used properly can confirm both file integrity and authenticity.
In terms of integrity, an MD5 hash comparison detects changes in files that would cause errors.It is a very good idea to run a MD5 hash comparison check when you have a large file such as a movie or.iso downloads.
***********************************************************************************
MD5 Checker for Linux:  http://sinf.gr/en/hashcalc.html
MD5 Checker for Windows:  http://getmd5checker.com/ 
======================================================
MD5 Hash: 079624e4dc7dbf68a3fe0783f86642b7
======================================================
This was personally encoded by me, Carjacker. Enjoy!
Leave your thoughts/opinions and ratings on the A/V of this film for others to see. Thanks! 
Pease seed as you DL so others may also enjoy the movie! 
**Requests are welcome!